<svg height="512pt" viewBox="0 0 512 512" width="512pt" xmlns="http://www.w3.org/2000/svg"><path d="m256 0c-140.96875 0-256 115.050781-256 256 0 140.96875 115.050781 256 256 256 140.96875 0 256-115.050781 256-256 0-140.96875-115.050781-256-256-256zm0 482c-124.617188 0-226-101.382812-226-226s101.382812-226 226-226 226 101.382812 226 226-101.382812 226-226 226zm0 0"/><path d="m256 60c-107.664062 0-196 88.367188-196 196 0 107.664062 88.367188 196 196 196 107.664062 0 196-88.367188 196-196 0-107.664062-88.367188-196-196-196zm0 362c-91.53125 0-166-74.46875-166-166s74.46875-166 166-166 166 74.46875 166 166-74.46875 166-166 166zm0 0"/><path d="m271 166c19.589844 0 38.148438 9.0625 52.25 25.515625 5.394531 6.292969 14.863281 7.019531 21.152344 1.628906 6.289062-5.390625 7.019531-14.863281 1.625-21.152343-19.894532-23.210938-46.539063-35.992188-75.027344-35.992188-45.597656 0-82.40625 32.519531-97.402344 75h-22.597656c-8.285156 0-15 6.714844-15 15s6.714844 15 15 15h15.8125c-.539062 4.9375-.8125 9.945312-.8125 15s.273438 10.0625.8125 15h-15.8125c-8.285156 0-15 6.714844-15 15s6.714844 15 15 15h22.597656c14.996094 42.472656 51.800782 75 97.402344 75 28.488281 0 55.132812-12.78125 75.027344-35.992188 5.394531-6.289062 4.664062-15.757812-1.625-21.148437-6.292969-5.394531-15.761719-4.664063-21.152344 1.625-14.101562 16.453125-32.660156 25.515625-52.25 25.515625-28.640625 0-52.378906-19.09375-64.933594-45h64.933594c8.285156 0 15-6.714844 15-15s-6.714844-15-15-15h-73.949219c-.683593-4.910156-1.050781-9.917969-1.050781-15s.367188-10.089844 1.050781-15h73.949219c8.285156 0 15-6.714844 15-15s-6.714844-15-15-15h-64.933594c12.570313-25.9375 36.324219-45 64.933594-45zm0 0"/></svg>